<?xml version="1.0" encoding="utf-8"?>
<!-- Generator: Adobe Illustrator 24.0.1, SVG Export Plug-In . SVG Version: 6.00 Build 0)  -->
<svg version="1.1" id="Capa_1" xmlns="http://www.w3.org/2000/svg" xmlns:xlink="http://www.w3.org/1999/xlink" x="0px" y="0px"
	 viewBox="0 0 361 343.4" style="enable-background:new 0 0 361 343.4;" xml:space="preserve">
<style type="text/css">
	.st0{fill:#FFFFFF;}
</style>
<g>
	<g id="Layer_5_47_">
		<path class="st0" d="M331,118.1h-13c-3.6,0-3.7-2.3-3.8-3.5C307.4,50.3,252.8,0,186.6,0h-12.3C108.7,0,54.4,49.6,47,113.2
			c-0.2,1.6-0.3,4.9-3.3,4.9H30c-9,0-30,9.5-30,57.2v25.1c0,35.4,21,43.6,30,43.6h43.6c9,0,16.3-7.4,16.3-16.3v-93.2
			c0-9-7.4-16.3-16.3-16.3c0,0-2.1-0.2-1.5-3.8C79.2,64,122.2,25,174.4,25h12.3c51.9,0,94.9,38.4,102.2,88.3
			c0.2,1.6,1.1,4.9-1.4,4.9c-9,0-16.3,7.4-16.3,16.3v93.2c0,9,7.4,16.3,16.3,16.3h8.2c2.3,0,1.9,1.8,1.7,2.7
			c-6.7,30.1-21.6,64.3-55.2,64.3h-24.9c-2.5,0-3.2-1.9-3.6-2.7c-4-7.4-11.9-12.4-20.8-12.4h-22.9c-13.1,0-23.8,10.6-23.8,23.8
			c0,13.1,10.6,23.8,23.8,23.8h22.9c9.1,0,17-5.1,21-12.7c0.3-0.7,0.6-2,3.3-2h25.1c22.8,0,53.4-11.3,69.3-65.4
			c1.7-5.8,3.1-11.5,4.2-17c0.2-0.8,0.3-2.3,2.6-2.3H331c9,0,30-8.2,30-43.6v-25.1C361,128.3,340,118.1,331,118.1z"/>
	</g>
</g>
</svg>
