<?xml version="1.0" encoding="utf-8"?>
<!-- Generator: Adobe Illustrator 24.0.1, SVG Export Plug-In . SVG Version: 6.00 Build 0)  -->
<svg version="1.1" id="Capa_1" xmlns="http://www.w3.org/2000/svg" xmlns:xlink="http://www.w3.org/1999/xlink" x="0px" y="0px"
	 viewBox="0 0 60.1 45.3" style="enable-background:new 0 0 60.1 45.3;" xml:space="preserve">
<style type="text/css">
	.st0{fill:#FFFFFF;}
</style>
<g>
	<path class="st0" d="M51.4,39.8H19.7c-1.3,0-2.4-1.1-2.4-2.4c0-1.3,1.1-2.4,2.4-2.4h31.7c1.3,0,2.4,1.1,2.4,2.4
		C53.8,38.8,52.7,39.8,51.4,39.8z"/>
	<path class="st0" d="M51.4,25H19.7c-1.3,0-2.4-1.1-2.4-2.4s1.1-2.4,2.4-2.4h31.7c1.3,0,2.4,1.1,2.4,2.4C53.8,23.9,52.7,25,51.4,25z
		"/>
	<path class="st0" d="M51.4,10.2H19.7c-1.3,0-2.4-1.1-2.4-2.4s1.1-2.4,2.4-2.4h31.7c1.3,0,2.4,1.1,2.4,2.4S52.7,10.2,51.4,10.2z"/>
	<circle class="st0" cx="9.5" cy="8" r="3.2"/>
	<circle class="st0" cx="9.5" cy="22.6" r="3.2"/>
	<circle class="st0" cx="9.5" cy="37.3" r="3.2"/>
</g>
</svg>
