<?xml version="1.0" encoding="utf-8"?>
<!-- Generator: Adobe Illustrator 13.0.0, SVG Export Plug-In . SVG Version: 6.00 Build 14948)  -->
<!DOCTYPE svg PUBLIC "-//W3C//DTD SVG 1.1//EN" "http://www.w3.org/Graphics/SVG/1.1/DTD/svg11.dtd">
<svg version="1.1" id="Layer_1" xmlns="http://www.w3.org/2000/svg" xmlns:xlink="http://www.w3.org/1999/xlink" x="0px" y="0px"
	 width="500px" height="500px" viewBox="0 0 500 500" enable-background="new 0 0 500 500" xml:space="preserve">
<g>
	<g>
		<path fill="#FFFFFF" d="M493.813,238.026l-53.5-37.717c-9.692-6.833-23.09,0.125-23.09,11.973v23.068H160.348
			c-8.09,0-14.649,6.559-14.649,14.649s6.56,14.648,14.649,14.648h256.873v23.067c0,11.926,13.469,18.754,23.09,11.973
			l53.498-37.717C501.979,256.216,502.144,243.913,493.813,238.026z"/>
	</g>
</g>
<g>
	<g>
		<path fill="#FFFFFF" d="M420.381,344.06c-7-4.049-15.963-1.658-20.016,5.346c-34.41,59.488-98.732,99.425-172.237,99.425
			c-109.635,0-198.83-89.195-198.83-198.83s89.195-198.83,198.83-198.83c73.554,0,137.847,39.974,172.237,99.423
			c4.051,7.004,13.016,9.394,20.016,5.346c7.002-4.051,9.395-13.013,5.346-20.016C386.151,67.507,312.235,21.872,228.128,21.872
			C102.041,21.872,0,123.902,0,250c0,126.087,102.03,228.128,228.128,228.128c84.144,0,158.039-45.667,197.599-114.053
			C429.778,357.072,427.385,348.111,420.381,344.06z"/>
	</g>
</g>
</svg>
