<?xml version="1.0" encoding="utf-8"?>
<!-- Generator: Adobe Illustrator 24.0.1, SVG Export Plug-In . SVG Version: 6.00 Build 0)  -->
<svg version="1.1" id="Layer_3" xmlns="http://www.w3.org/2000/svg" xmlns:xlink="http://www.w3.org/1999/xlink" x="0px" y="0px"
	 viewBox="0 0 512 512" style="enable-background:new 0 0 512 512;" xml:space="preserve">
<style type="text/css">
	.st0{fill:#454545;}
</style>
<path class="st0" d="M449.1,192h-2c-6.1-0.1-11.6-3.9-13.8-9.6c-2.3-5.5-1-11.9,3.2-16.2l1.5-1.5c18.3-18.3,18.3-48,0-66.4
	l-24.2-24.2c-18.3-18.3-48-18.3-66.3,0l-1.5,1.5c-6.1,5.9-15.8,5.7-21.6-0.4c-2.7-2.8-4.2-6.5-4.3-10.3v-2.1C320,37,299,16,273.1,16
	h-34.2C213,16,192,37,192,62.9V65c-0.2,8.4-7.2,15.1-15.7,14.9c-3.8-0.1-7.4-1.6-10.1-4.2l-1.4-1.5c-18.3-18.3-48-18.3-66.3,0
	L74.2,98.4c-18.3,18.3-18.3,48,0,66.4l1.5,1.5c4.3,4.4,5.5,11,3,16.6C76.4,188.3,71,192,65,192h-2C37,192,16,213,16,238.9v34.2
	C16,299,37,320,62.9,320h2c6.1,0.1,11.6,3.9,13.8,9.6c2.3,5.5,1,11.9-3.2,16.2l-1.5,1.5c-18.3,18.3-18.3,48,0,66.4l24.2,24.1
	c18.3,18.3,48,18.3,66.4,0l1.5-1.5c4.4-4.3,11-5.5,16.6-3c5.6,2.2,9.2,7.6,9.3,13.6v2.1c0,25.9,21,47,46.9,47c0,0,0,0,0.1,0h34.2
	c25.9,0,46.9-21,46.9-46.9V447c0.2-8.4,7.2-15.1,15.7-14.9c3.8,0.1,7.4,1.6,10.1,4.2l1.5,1.5c18.3,18.3,48,18.3,66.3,0l24.2-24.1
	c18.3-18.3,18.3-48,0-66.4l-1.5-1.5c-4.3-4.4-5.5-11-3-16.6c2.2-5.6,7.6-9.3,13.7-9.3h2c25.9,0,46.9-21,46.9-46.9v-34.2
	C496,213,475,192,449.1,192z M464,273.1c0,8.2-6.7,14.9-14.9,14.9h-2c-26.1,0.2-47.1,21.6-46.9,47.7c0.1,12.3,5,24,13.6,32.8
	l1.4,1.5c5.8,5.8,5.8,15.3,0,21.1L391,415.2c-5.8,5.8-15.3,5.8-21.1,0l-1.4-1.5c-18.6-18.3-48.6-18-66.9,0.6
	c-8.6,8.7-13.4,20.5-13.5,32.7v2.1c0,8.2-6.7,14.9-14.9,14.9h-34.2c-8.2,0-14.9-6.7-14.9-14.9V447c-0.1-26.1-21.4-47.1-47.4-47
	c-12.4,0.1-24.2,5-33,13.7l-1.5,1.5c-5.8,5.8-15.3,5.8-21.1,0L96.8,391c-5.8-5.8-5.8-15.3,0-21.1l1.5-1.5
	c18.3-18.6,18.1-48.6-0.5-66.9C89,293,77.2,288.1,65,288h-2c-8.2,0-14.9-6.7-14.9-14.9v-34.2c0-8.2,6.7-14.9,14.9-14.9h2
	c26.1-0.2,47.1-21.6,46.9-47.7c-0.1-12.3-5-24-13.6-32.8l-1.4-1.5c-5.8-5.8-5.8-15.3,0-21.1L121,96.8c5.8-5.8,15.3-5.8,21.1,0
	l1.4,1.5c18.6,18.3,48.6,18,66.9-0.6C219,89,223.9,77.2,224,65v-2.1c0-8.2,6.7-14.9,14.9-14.9h34.2c8.2,0,14.9,6.7,14.9,14.9V65
	c0.2,26.1,21.6,47.1,47.7,46.9c12.3-0.1,24-5,32.7-13.6l1.5-1.5c5.8-5.8,15.3-5.8,21.1,0l24.2,24.2c5.8,5.8,5.8,15.3,0,21.1
	l-1.5,1.5c-18.3,18.6-18.1,48.6,0.6,66.9c8.7,8.6,20.5,13.5,32.8,13.6h2c8.2,0,14.9,6.7,14.9,14.9V273.1z"/>
<path class="st0" d="M256,144c-61.9,0-112,50.1-112,112s50.1,112,112,112s112-50.1,112-112C367.9,194.2,317.8,144.1,256,144z
	 M256,336c-44.2,0-80-35.8-80-80s35.8-80,80-80s80,35.8,80,80C335.9,300.2,300.2,335.9,256,336z"/>
</svg>
